<svg width="200" height="200" viewBox="0 0 200 200" fill="none" xmlns="http://www.w3.org/2000/svg">
<path fill-rule="evenodd" clip-rule="evenodd" d="M44.3802 68.2116C44.3802 78.0446 52.3492 86.0163 62.1802 86.0163C72.0132 86.0163 79.9822 78.0446 79.9822 68.2116C79.9822 58.3786 72.0132 50.4074 62.1802 50.4074C52.3492 50.4074 44.3802 58.3786 44.3802 68.2116ZM62.1872 29.0344C66.8472 29.0344 70.7202 28.4683 70.7202 34.9543C70.7202 35.8263 71.0712 36.8714 71.0712 37.7424C71.0712 39.4804 74.8132 41.2224 75.7712 41.2224C77.9942 41.2224 80.9962 36.3474 83.9572 36.3474C87.0022 36.3474 94.0532 45.3185 94.0532 46.4475C94.0532 49.4525 89.1823 52.4584 89.1823 54.6364C89.1823 62.9054 98.1202 57.0633 101.358 62.2473V74.2107C96.8292 78.3167 89.1823 73.5286 89.1823 81.7976C89.1823 84.0206 94.0532 87.0255 94.0532 89.9865C94.0532 93.0325 85.1312 100.086 83.9572 100.086C80.9962 100.086 77.9942 95.2116 75.7712 95.2116C72.5522 95.2116 71.4192 97.3415 71.4192 99.3845C71.4192 100.26 70.7202 103.219 70.7202 104.09C70.7202 107.919 63.1032 107.401 62.1872 107.401C59.8392 107.401 54.0052 107.657 54.0052 103.741C54.0052 102.87 53.3102 99.5636 53.3102 98.6926C53.3102 96.8626 49.6522 95.2126 48.4352 95.2126C46.5622 95.2126 43.3842 100.087 40.4252 100.087C37.4192 100.087 30.3252 91.1605 30.3252 89.9875C30.3252 87.0255 35.1962 84.0205 35.1962 81.7985C35.1962 78.5835 33.0652 77.4465 31.1922 77.4465C23.5772 77.4465 23.0102 74.7505 23.0102 68.2155C23.0102 65.8675 22.6192 60.0334 26.6682 60.0334C29.6702 60.0334 35.1952 59.5124 35.1952 54.6374C35.1952 52.4584 30.3242 49.4525 30.3242 46.4485C30.3242 43.4464 39.2892 36.3484 40.4242 36.3484C43.4262 36.3484 46.4302 41.2234 48.6082 41.2234C51.8292 41.2234 52.9602 39.1376 52.9602 37.0456C52.9602 36.1746 53.6552 33.2125 53.6552 32.3415C53.6552 28.4245 61.2752 29.0344 62.1872 29.0344Z" fill="#FFCF60"/>
<path d="M51.6622 65.5503V151.86C51.6622 154.221 54.7392 156.01 57.7042 156.566L166.893 171.25C174.561 172.435 178.239 167.326 177.672 161.987V84.1685L158.094 86.0845C157.757 86.1285 157.411 86.16 157.071 86.188C154.564 86.346 152.478 85.9353 150.787 85.1113C147.629 83.6453 145.401 80.711 145.401 76.145V51.7632L56.7822 60.4272C55.2022 60.6592 51.6622 62.3863 51.6622 65.5503Z" fill="url(#paint0_linear_2866_771)"/>
<path d="M177.673 132.595C160.478 130.131 140.544 128.725 119.288 128.725C94.0873 128.725 70.7423 130.705 51.6193 134.077L51.5873 151.86C51.5873 154.221 54.7393 156.01 57.7093 156.566L166.897 171.25C174.563 172.435 178.244 167.326 177.672 161.987V132.595H177.673Z" fill="url(#paint1_linear_2866_771)"/>
<path d="M177.708 81.2524L159.55 83.0142C152.075 83.5612 148.629 79.724 148.629 75.165V51.5435L177.708 81.2524Z" fill="url(#paint2_linear_2866_771)"/>
<path d="M51.6622 82.5791V96.478C52.5792 97.092 53.3092 97.8724 53.3092 98.6924C53.3092 99.5634 54.0042 102.87 54.0042 103.741C54.0042 107.657 59.8382 107.4 62.1862 107.4C63.1042 107.4 70.7192 107.919 70.7192 104.089C70.7192 103.218 71.4182 100.26 71.4182 99.3843C71.4182 97.3413 72.5512 95.2114 75.7702 95.2114C77.9932 95.2114 80.9952 100.085 83.9562 100.085C85.1302 100.085 94.0562 93.0283 94.0562 89.9863C94.0562 87.0243 89.1812 84.0194 89.1812 81.7974C89.1812 73.5284 96.8292 78.3174 101.357 74.2104V62.2471C98.5482 57.7441 91.4252 61.5604 89.6092 57.2134L77.0652 58.4424C78.9082 61.2464 79.9822 64.6034 79.9822 68.2114C79.9822 78.0404 72.0132 86.0161 62.1802 86.0161C58.2442 86.0161 54.6052 84.7401 51.6622 82.5791Z" fill="url(#paint3_linear_2866_771)"/>
<path d="M105.664 103.437L107.056 123.443H103.73L103.267 115.725L103.06 111.768C102.996 110.451 102.956 109.167 102.941 107.913C102.638 109.124 102.371 110.359 102.089 111.615C101.806 112.87 101.525 114.053 101.239 115.182L99.2233 123.165L96.6922 123.171L94.6652 115.475C94.3672 114.371 94.0833 113.21 93.8083 111.984C93.5313 110.759 93.2832 109.555 93.0642 108.372C92.9942 109.61 92.9823 110.895 92.9593 112.233C92.9353 113.568 92.9062 114.836 92.8682 116.044L92.6702 123.451H89.7432L90.5312 104.341L94.5352 104.103L96.5122 111.302C96.8132 112.466 97.0962 113.619 97.3552 114.759C97.6212 115.897 97.8603 117.021 98.0723 118.137C98.3253 117.036 98.5342 115.9 98.7742 114.728C99.0062 113.56 99.2603 112.379 99.5423 111.188L101.409 103.696L105.664 103.437ZM83.8182 113.914L88.3162 123.45L84.8162 123.455L83.3262 119.839C83.0512 119.201 82.8062 118.62 82.5922 118.085C82.3772 117.551 82.1702 117.012 81.9712 116.469C81.7562 117.02 81.5902 117.573 81.4122 118.121L80.8073 119.891L79.5962 123.455H76.3643L80.1782 114.053L76.1823 105.196L79.4753 104.998L80.9342 108.554C81.1472 109.073 81.3373 109.572 81.5163 110.059L82.0713 111.556L82.5892 109.955C82.7372 109.469 82.9033 108.962 83.0843 108.432L84.3662 104.705L87.7943 104.503L83.8182 113.914ZM120.746 120.046L120.806 123.435L110.212 123.44L109.86 103.184L113.489 102.969L113.788 120.113L120.746 120.046ZM161.37 112.259C161.363 112.609 161.347 112.909 161.319 113.162C161.291 113.415 161.255 113.63 161.214 113.804C161.171 113.974 161.115 114.11 161.054 114.208C160.987 114.303 160.913 114.37 160.83 114.405L147.77 121.443C147.609 121.525 147.48 121.561 147.367 121.542C147.259 121.522 147.169 121.446 147.1 121.312C147.028 121.182 146.985 120.988 146.959 120.734C146.937 120.477 146.928 120.152 146.937 119.756C146.946 119.226 146.959 118.801 146.985 118.488C147.007 118.171 147.041 117.93 147.089 117.744C147.136 117.565 147.2 117.432 147.275 117.352C147.357 117.268 147.461 117.198 147.595 117.138L157.335 112.124L147.956 106.706C147.783 106.606 147.642 106.513 147.54 106.422C147.437 106.327 147.361 106.184 147.31 105.989C147.259 105.8 147.226 105.547 147.215 105.224C147.204 104.904 147.204 104.469 147.215 103.922C147.224 103.436 147.243 103.058 147.275 102.78C147.306 102.511 147.362 102.313 147.438 102.194C147.505 102.08 147.597 102.029 147.709 102.046C147.819 102.062 147.951 102.112 148.104 102.207L160.926 110.063C161.074 110.146 161.19 110.365 161.271 110.713C161.347 111.069 161.381 111.582 161.37 112.259ZM131.301 119.226C131.292 119.645 131.275 119.975 131.239 120.212C131.208 120.449 131.161 120.619 131.101 120.722C131.038 120.822 130.961 120.861 130.871 120.845C130.786 120.828 130.669 120.782 130.531 120.695L120.135 113.844C120.012 113.748 119.925 113.563 119.871 113.275C119.822 112.99 119.799 112.561 119.805 111.995C119.815 111.702 119.828 111.453 119.848 111.235C119.868 111.016 119.897 110.839 119.925 110.699C119.953 110.56 119.992 110.451 120.043 110.371C120.098 110.288 120.154 110.225 120.215 110.181L130.825 103.976C131.097 103.83 131.287 103.858 131.393 104.079C131.501 104.305 131.552 104.757 131.539 105.433C131.53 105.901 131.517 106.269 131.497 106.538C131.479 106.814 131.448 107.025 131.411 107.186C131.372 107.341 131.314 107.452 131.251 107.52C131.183 107.587 131.093 107.655 130.978 107.717L122.957 112.093L130.668 116.789C130.81 116.873 130.92 116.957 131.012 117.044C131.098 117.127 131.16 117.249 131.203 117.416C131.252 117.586 131.277 117.809 131.291 118.085C131.306 118.37 131.31 118.746 131.301 119.226ZM136.22 126.889C136.168 127.038 136.105 127.158 136.029 127.244C135.949 127.328 135.847 127.399 135.707 127.446C135.565 127.498 135.396 127.533 135.191 127.549C134.99 127.566 134.734 127.566 134.421 127.549C134.036 127.529 133.722 127.487 133.478 127.43C133.238 127.368 133.05 127.291 132.927 127.194C132.804 127.095 132.732 126.976 132.715 126.83C132.697 126.684 132.722 126.52 132.777 126.326L141.822 97.6285C141.864 97.4825 141.924 97.3554 142.002 97.2604C142.082 97.1564 142.192 97.0815 142.326 97.0275C142.463 96.9675 142.64 96.9231 142.861 96.8961C143.084 96.8641 143.345 96.8482 143.659 96.8522C144.068 96.8522 144.396 96.8754 144.643 96.9274C144.894 96.9704 145.085 97.0374 145.208 97.1334C145.335 97.2334 145.405 97.3503 145.421 97.4933C145.439 97.6393 145.421 97.8134 145.367 98.0084L136.22 126.889Z" fill="#F997FE"/>
<defs>
<linearGradient id="paint0_linear_2866_771" x1="35.8696" y1="91.8509" x2="194.048" y2="121.504" gradientUnits="userSpaceOnUse">
<stop stop-color="#F85AFE" stop-opacity="0.9"/>
<stop offset="0.4736" stop-color="#A749F5" stop-opacity="0.9474"/>
<stop offset="1" stop-color="#5036EB"/>
</linearGradient>
<linearGradient id="paint1_linear_2866_771" x1="53.7352" y1="122.47" x2="181.952" y2="166.931" gradientUnits="userSpaceOnUse">
<stop stop-color="#2A9CE2"/>
<stop offset="1" stop-color="#4C17A5"/>
</linearGradient>
<linearGradient id="paint2_linear_2866_771" x1="146.604" y1="65.1467" x2="176.922" y2="77.0886" gradientUnits="userSpaceOnUse">
<stop stop-color="#5036EB"/>
<stop offset="1" stop-color="#D553FA"/>
</linearGradient>
<linearGradient id="paint3_linear_2866_771" x1="51.4987" y1="79.1661" x2="101.519" y2="85.987" gradientUnits="userSpaceOnUse">
<stop stop-color="#F3B227"/>
<stop offset="1" stop-color="#694DC3"/>
</linearGradient>
</defs>
</svg>
